<svg width="76" height="75" xmlns="http://www.w3.org/2000/svg" viewBox="0 0 76.1 75.2"><title>University of Maryland</title><circle fill="#FFF" cx="38.1" cy="37.4" r="26.4"/><path fill="#FED520" d="M64.4 36.8c-.3.4-.6.6-1 .8-.9.5-1.8.8-2.8 1-1.4.4-2.9.7-4.4.9-1.6.3-3.6.5-5.6.6-2.6.3-4.2.4-6.2.5-2.2.1-4.4.2-6.8.1v6.8c.1 10.1.1 10.1.4 16.3 14.6 0 26.4-11.8 26.4-26.4v-.6z"/><path fill="#010101" d="M37.7 41.6v5.8c4.2 4 4.2 4 6 5.7.5-3.9.7-7.8.7-11.8v-.9c-2.6.1-4.4.2-6.8.1v1.1zm9.7 16.2c-1-1.6-2.3-3.1-3.6-4.5-.9 6.4-2.5 10.4-4.5 10.4h.5c.2 0 .4 0 .6-.1 2.8-.2 5.2-2.3 7-5.8zM50.3 47s-1.5 7.9-2.9 10.8c.8 1.6.8 2.2.5 3.3 2.8-2.2 4.9-5.2 6.1-8.5-1-2-2.2-3.9-3.7-5.6zm-7.6 16.3c.6-.1 1.1-.2 1.6-.4l.6-.2c1.9-.6 2.3-.9 2.9-1.8-1.7 1.3-3.6 2.1-5.7 2.5l.6-.1zm11.7-6.5c3.8-4.3 6.1-10.4 6.1-17.4v-.9c-1.4.4-2.9.7-4.4.9v.9c.1 4.1-.7 8.2-2.2 12.1.9 2.2.9 3 .5 4.4zm-3.8-16.6c-2.6.3-4.2.4-6.2.5 3.7 3.7 4.4 4.7 5.9 6.4.2-2 .3-3.9.3-5.9v-1zM32.3 12.4c1.8-.8 3.7-1.3 5.7-1.4-1.9.2-3.8.7-5.7 1.4"/><path fill="#E03B3F" d="M55.7 39.6c-1.4-.2-2.6-2.5-1.9-4.8-1.9 1.4-4.1-1.4-3.7-3.9.2-1.4 1-2.6 2.6-2-.6-2.1-1.4-4.1-2.3-6-1.4.2-2.8.3-4.5.5 1.4 2.1 0 4.1-1.9 3.8-1.6-.3-2.7-1.8-2.4-3.5-1.1.7-2.6.4-3.3-.7-.3-.4-.4-.9-.4-1.4-.2 5.4-.2 12.2-.2 19.4 6.2.1 12.3-.3 18.5-1.2-.1-.2-.3-.2-.5-.2zM21 44.9c1.9-.7 4.4 2.6 3.6 4.9-.3.8-1.2 1.3-2 1-.2-.1-.3-.1-.4-.2.5 1.9 1.3 3.7 2.3 5.4 1.4.2 2.9.4 4.7.5-1.4-1.6-.3-3 1.6-2.9 1.6.1 3.7 1.4 3.2 3.2 1.4-.6 3.8-.1 4.1 1.7-.1-3.9-.1-9.8-.1-16.6V41c-2.2 0-4.5-.1-6.8-.2-4-.1-8-.5-12-1.2 1.8.5 2.4 3.6 1.8 5.3zm29.6-24.3c.2-.1.5-.1.7-.1 1.6-.3 4.9-1.1 4.9-2.1.9 1 1.7 2 2.3 3.2l.3.6c.1.3.1.6.2.9 0 .5-.4.5-.8.5 0 0-.1 0-.1-.1-1-.5-1.7-1.4-2.1-2.4-.7.2-1.8.7-2.7.9-.2 0-.3.1-.5.1 1.2 1.9 2.2 4 2.9 6.1 1.4-1.4 3.4 1.2 3.5 3.7.1 1.5-.5 2.7-1.9 2.3 1 1.9.7 4.8-1.3 5.4 0-6.7-1.9-13.3-5.4-19m-.1 0c-3.4-5.1-6-7-9.4-8.3-.6-.3-3-1.2-3.1-1.2.5.7 1.3 1.2 2.1 1.5-.1.4 0 .9 1.1 1.7.2.1.3.2.5.3 1.7.9 2.1.2 2.2-.1 1 .7 1.9 1.5 2.6 2.5.6.8 1.3 1.5 1.7 2.1-1.1.1-2.5.3-3.8.4-.1-1.3-.9-2.4-2-2.8-1.6-.6-2.2 1.4-1.5 2.7-1.3-.7-2.9-.1-3.1 2 4.3 0 8.5-.2 12.7-.8m.4-4.7v-.2l.2-.2c.3-.2 1.1-.3 3.3 1.3-3.9-3.1-8.7-5-13.7-5.5-.5-.1-1.1-.1-1.6-.1.8.1 1.7.2 2.5.5.2.1.3.2.4.2.3 0 .6.1.9.2.6.2 1.2.4 1.7.6.5.3 1.4 1 1.4 1.3-.2.1-.2.1-.5 0 1.9 1.4 3.6 3 5.1 4.7.9-.2 2.3-.4 2.9-.5-1-.6-1.9-1.4-2.6-2.3zM24.1 57.3c-1.5-.2-3-.6-4.4-1.2l-.2-.1c-.9-.9-1.6-1.8-2.4-2.7-.6-.7-1.1-1.5-1.6-2.4h.3c1.2.4 3 3.7 3 3.7.9.3 1.9.6 2.8.7-1.1-1.7-2-3.5-2.6-5.5-1.6.8-3.7-3.5-3.1-5.4.1-.4.5-1.2 1.6-.3-.8-1.9-.6-4.8 1.4-4.8.1 6.5 1 12.1 5.2 18m13.7 1.3c-.3.9-1.6 1.8-3.3 1 .8 1.1.1 2.1-1.4 1.8-1.2-.2-2.6-1.2-2.6-2.1-1.5-.1-2.7-.3-3.9-.4 1 1.2 2.3 2.3 3.6 3.1.2-.1.4-.1 1.2.3l3 1.2h-.2c-.5-.1-.9-.2-1.4-.3-1.9-.4-5.3-1.5-8.7-5.9 4.6.7 9.2 1 13.8.9 0 .1-.1.2-.1.4"/><path fill="#FED520" d="M38 11c-14.3.1-26 11.5-26.3 25.8.2.3.4.5.7.6.8.5 1.6.8 2.5 1 1.3.4 2.7.6 4 .8 4 .6 8 1 12 1.2 2.3.1 4.5.2 6.8.2 0-1.4 0-9 .1-16.3v-2.9c0-4.8.1-9.7.2-10.4z"/><path fill="#010101" d="M50.7 60.6c-1.2.6-2.5 1.2-3.7 1.6-.5.2-1.1.4-1.6.5 3.6-.9 8.4-4.9 9.3-5.9-.4 1-1 1.8-1.8 2.5-.5.3-1.8 1-2.2 1.3zm-35.8-22c-.9-.2-1.7-.5-2.5-1 .3-9.3 5.3-17.8 13.3-22.6-1.6 1.2-2.8 2.9-3.6 4.7-4.5 5.2-7 11.9-7.2 18.9m10.9-23.7c1.9-1.4 3-2.4 6.1-3.1 2-.5 4.1-.8 6.1-.7-4.3.2-8.6 1.5-12.2 3.8m-1.4 25.2c-1.9-.2-3.7-.5-5.4-.7.1-4.6 1-9.2 2.8-13.4.6 2.6 1.7 5 3.1 7.2-.3 2.3-.5 4.6-.5 6.9m13.4-18.7c0 2.9-.1 5.8-.1 8.2v4.3c-2.1-2.1-4-4.3-5.9-6.7C33.1 19 35.4 12.5 38 11c-.1.8-.2 5.5-.2 10.4zm-9.3-.3c-1.8 3.9-3 7.9-3.6 12.2 1.7 2.6 3.7 5 5.8 7.3 0-4.5.4-9 1.1-13.5-1.4-1.7-2.5-3.8-3.3-6zm34.9 16.6v.9c0 9.3-4.6 17.1-11.7 21.4l-.2.2c8.1-4.9 13-13.7 12.8-23.2-.3.2-.6.5-.9.7zM32.3 12.3c-3.9 1.6-7.4 4.1-10.1 7.3-.7 2-.8 4.2-.4 6.3 1.6-3.8 3.9-7.2 6.9-10.1.8-1.5 2.1-2.7 3.6-3.5zm-3.8 8.8c-.5-2.1-.6-3.2.2-5.1 2.6-2.5 5.8-4.2 9.3-4.9-3.7.9-7 4.9-9.5 10"/><path d="M6.3 17.8l.2.1c-.3.5-.2.8.4 1.1L9 20.1c1 .5 1.7 1.6.9 3.4-.7 1.6-2 1.8-3.1 1.3l-2.3-1.2c-.5-.3-.6-.2-.9.4l-.2-.1 1-2 .2.1c-.2.5-.2.7.3.9L7 24.1c1.1.5 2 .2 2.6-1 .5-.9.5-2-.8-2.6l-1.8-1c-.7-.4-.9-.4-1.3.3l-.2-.1.8-1.9zm9.2-2.6l-6.7.5 2.9 2.5c.5.5.6.4 1.2-.2l.1.1-1.4 1.6-.1-.1c.4-.5.4-.6 0-.9l-3.3-2.8c-.3.1-.5.2-.6.5l-.1-.1 1-1.3 6-.4-2.7-2.3c-.5-.4-.5-.3-1.1.3l-.1-.1L12 11l.1.1c-.5.5-.5.7-.2.9l3.7 3.2h-.1zm3.2-2.8l-1.6 1.4-.1-.2c.4-.4.4-.5 0-1l-2.4-2.9c-.3-.4-.5-.4-.9-.1l-.1-.1 1.6-1.4.1.1c-.5.4-.5.5-.1 1l2.4 2.9c.4.5.6.5 1.1.3zm3.3-2l-4.1-3.2c-.5-.4-.6-.5-1.1-.2l-.1-.2 2.1-1.3.1.2c-.7.5-.7.7-.5.9l3.5 2.7-.7-3.8c0-.2-.1-.4-.2-.5-.1-.3-.4-.2-.9.1l-.1-.2 1.8-1 .2.2c-.4.2-.5.7-.4 1.1l.8 5-.4.2zm6.5-5.2l-.2.1c-.3-.5-.5-.5-.8-.5l-1.5.4.6 1.8c.1.4.3.5.6.3l1.3-.5c.6-.3.7-.5.7-1.3l.2-.1.3 1.3-4.5 1.5-.1-.2.3-.1c.6-.3.7-.5.5-.9l-1.2-3.6c-.2-.5-.4-.6-.9-.5l-.2.1-.1-.2 4-1.4.5 1.2V3c-.4-.6-.6-.7-.9-.6l-1.8.6.7 2.1 1.5-.5c.3-.1.4-.3.3-.8l.2-.2.5 1.6zM31.9.9l.5-.1c1.4-.2 1.8.5 1.9 1.3.1 1.1-.5 1.6-1.5 1.6l-.5.1-.4-2.9zm.3 3h.4l.6-.1 1 .6.8.6c.7.8 1.8 1.1 2.8.7v-.2c-.7 0-1.3-.2-1.8-.6l-.8-.6c-.5-.4-.7-.5-1.1-.8.7-.2 1.1-.9 1-1.6C35 1 34.2.4 32.5.6c-.5.1-.7.1-1.1.2-.4.1-.7.2-1.1.2v.2h.2c.5-.1.6 0 .7.5l.5 3.7c.1.5-.1.7-.6.8h-.2v.2l2.5-.3V6h-.2c-.3.1-.7-.1-.8-.4v-.2l-.2-1.5zm6.9.5c.1.7.7 1.3 1.4 1.4.5.1 1.1-.3 1.2-.8v-.1c.1-1.3-2.7-1.9-2.5-3.5.1-.8.8-1.3 1.6-1.2.7.1.9.3 1.2.3.1 0 .1 0 .2-.1h.2l.1 1.1h-.2C42.1.9 41.6.4 40.9.3c-.5-.1-1 .2-1.1.7-.1 1.3 2.7 1.8 2.6 3.5-.2.9-1 1.5-1.9 1.4-.4 0-.8-.1-1.2-.2-.1 0-.2 0-.2.1h-.2l-.1-1.4h.3zm6.7 2.3l-2.1-.5v-.1c.5.1.7 0 .8-.6l.8-3.7c.1-.5 0-.6-.5-.7V.9l2.1.5v.2c-.5-.1-.7 0-.9.5l-.8 3.7c-.1.5 0 .7.5.8l.1.1zm4.5.6c-.1.5-.1.7.5.9l.3.1-.1.2-2.6-1.1.1-.2.3.1c.5.2.7.1.9-.4l1.6-4.1-1.5-.6c-.4-.1-.5 0-1 .6l-.2-.1.6-1.3.2.1c0 .1 0 .1.1.1 0 0 .1.1.2.1l4 1.6c.1 0 .3.1.3 0l.2.1-.4 1.4-.2-.1c.2-.7.1-1-.3-1.2L51.8 3l-1.5 4.3zm9.1.7c.5-.3.5-.5 0-.8l.1-.2 1.7 1.2-.1.2c-.4-.3-.9-.3-1.3 0l-2.6 1.3-.7 1.1c-.3.4-.2.6.2.9l.1.1h-.1l-2-1.4.1-.2.2.1c.5.3.7.2.9-.2l.7-1 .1-2.9c0-.8-.1-1-.5-1.4L58 6.1l-.1.2c-.6-.4-.7-.3-.7.2v2.6L59.4 8zm7.4 10.5c-1 .7-2.5 1-3.3-.2-.8-1.2-.6-2.8.6-3.7 0 0 .1 0 .1-.1.8-.6 2.4-1 3.3.2.8 1.3.5 2.9-.7 3.8zm.7.5c1.2-1 1.3-2.9.3-4.1-1.2-1.5-2.9-1.8-4.4-.7-1.3 1-1.3 2.8-.3 4.2 1.1 1.4 3 1.7 4.4.6zm1.8 5.5c.4-.4.5-.5.3-.9l-.7-1.5-1.8.9c-.5.2-.5.4-.3 1h-.2l-.8-2 .2-.1c.3.5.5.5 1.1.2l3.1-1.5c.5-.3.7-.4.5-1l.2-.1 1.7 3.6-.9.5-.1-.2c.5-.2.5-.5.4-1l-.7-1.6-1.9.9.7 1.6c.1.2.4.3.6.2 0 0 .1 0 .1-.1l.1.1-1.6 1zM7.2 59.3l3.2-5.8-4.3 2.7c-.5.3-.4.7-.1 1.2l-.2.1-1.4-1.9.2-.1c.5.6.7.6 1.6.1l3.7-2.4c.6-.4.8-.5.4-1.1l.2-.1 1 1.4-3 5.6 6.2-1.2 1 1.4h-.2c-.4-.5-.5-.5-.8-.4L10.8 62c-.8.6-.7.7-.3 1.4l-.2.1-1.7-2.4.2-.1c.3.5.7.7 1.2.4l3.9-3.3-6.5 1.3-.2-.1zm11.3 6.1l-1.6-1.2 2.4-1.6-.8 2.8zm-.2.6l-.6 2.1c0 .2-.1.3-.2.5-.2.3-.5.2-.9-.2l-.3-.2-.1.2 2.6 1.8.1-.2c-.5-.4-.5-.5-.4-1.2l1.8-6.5-.8-.5-.1.3-5 3.3c-.9.5-1.1.6-1.6.2l-.1.2 2.1 1.6.1-.2-.1-.2c-.5-.4-.6-.6-.5-.9.1-.1.5-.3.6-.5l1.6-1 1.8 1.4zm7.3-.2l.5.2c1.6.5 1.8 1.6 1.5 2.5-.5 1.3-1.4 1.5-2.6 1.1-.2-.1-.4-.1-.6-.3l1.2-3.5zm-1.3 3.7c.2.1.4.1.5.2l.7.3c.3.4.5.9.7 1.4l.5.9c.6 1.3.9 1.8 2.8 2.5l.1-.2c-.8-.4-1.4-1-1.7-1.8l-.5-1.2-.8-1.6c.9.1 1.7-.4 2-1.2.4-1.1-.2-2.2-2.2-2.9-.7-.3-.9-.3-1.4-.5-.5-.1-.9-.3-1.4-.5l-.1.2.3.1c.6.2.7.5.5 1.1l-1.6 4.5c-.3.7-.5.8-1.2.5l-.2.1-.1.2 3 1.1.1-.2-.2-.2c-.6-.2-.8-.5-.5-1.1l.7-1.7zm12.8-.2c.5-.5.2-.8-.5-.8v-.2l2.6.2v.2c-.6 0-1.1.2-1.5.7l-2.1 3-.2 1.7c-.1.6.2.8.8.9h.2v.2l-3.1-.3v-.2h.2c.7.1.9-.2 1-.7l.1-1.6-1.6-3.3c-.5-.9-.7-1.1-1.5-1.2v-.2l3 .3v.2c-.9-.1-.9.2-.6.6l1.6 2.9 1.6-2.4zm9.5 5.1l-5 .8V75l.4-.1c.5-.1.6-.3.5-.8l-.8-4.9c0-.4-.3-.8-.8-.8h-.4v-.2l3.3-.5v.2l-.5.1c-.7.1-.9.3-.8.9l.9 5.1c.1.3.2.4.5.4l1.6-.3c.6-.1.8-.4 1.4-1.5h.2l-.5 1.8zm5.4-5.7l-1.8.7-.2-2.8 2 2.1zm.3.4l1.5 1.6c.1.1.2.2.3.4.1.3-.1.5-.6.7l-.3.1.1.2 2.9-1.2-.1-.2c-.5.2-.8.2-1.2-.3l-4.7-4.9-.9.4.2.2.3 6c0 1.1 0 1.2-.7 1.6l.1.2 2.3-1-.1-.2-.2.1c-.5.3-.9.3-1 0V72l-.1-2 2.2-.9zm12.3-4.4l-8.4-1 3.1 3.7c.5.6.7.6 1.6 0l.1.2-2 1.6-.1-.2c.5-.5.5-.8.3-1.2l-3.5-4.3c-.3 0-.6.2-.9.4l-.2-.2 1.4-1.1 7.7.9-2.8-3.5c-.5-.5-.6-.5-1.4.1l-.2-.2 2-1.7.2.2c-.6.5-.7.7-.5 1.1l4 4.8-.4.4zm-1.7-8.8l.5-.8c.8-1.4 1.6-1.8 2.4-1.9.9-.1 1.8 0 2.6.5s1.3 1.2 1.6 2.1c.2 1 .1 1.6-.8 2.9-.5.7-.6.7-1 .5l-5.3-3.3zm4.4 4.1c.4.1.5.5.4.9 0 .1-.1.2-.2.3l-.1.2.2.1 2-3c1.3-1.7 1-4.1-.7-5.4-.1 0-.1-.1-.2-.1-1.6-1-3.6-.7-5.2 1.8-.4.5-.7 1.1-1 1.6-.3.5-.6 1-.8 1.4l.2.1.1-.2c.4-.5.6-.6 1.3-.2l4 2.5zM1.7 35.2V40c0 .3.1.4.3.4h.4v.2h-2v-.2h.4c.3 0 .3-.1.3-.4v-4.2c-.3.3-.6.5-1 .7l-.1-.1c.5-.4 1-.8 1.4-1.3l.3.1zm4.8 4.1c0 .6-.5 1.2-1.1 1.2-.6 0-1.1-.6-1.1-1.2v-.1c0-.5.3-1.1.8-1.3 1.1.5 1.4.9 1.4 1.4zm.4-2.9c0-.6-.6-1.2-1.6-1.2-.8 0-1.5.6-1.6 1.4 0 .5.4 1 1.2 1.4-.8.4-1.2.8-1.2 1.4.1.8.8 1.4 1.6 1.4.9 0 1.6-.6 1.6-1.5v-.1c0-.6-.4-1.1-1.3-1.5.9-.4 1.3-.8 1.3-1.3zm-.5 0c0 .5-.3.9-.7 1.2-1.1-.5-1.4-.8-1.4-1.3s.4-.9 1-.9c.7 0 1.1.4 1.1 1zm62.8-.6h2c.2 0 .2 0 .3-.1h.2l-.1.6h-2.1l-.1 1.5c.3-.2.6-.2.9-.2.9 0 1.7.8 1.7 1.7 0 1-.9 1.9-1.9 1.8H70c-.6 0-1.2-.3-1.2-.5 0-.1.1-.3.2-.3h.1l1.1.5c.8 0 1.3-.7 1.3-1.4 0-.8-.7-1.3-1.4-1.3-.3 0-.6.1-.9.4l-.1-.1.1-2.6zm6.3 3.7c0 .9-.4 1.5-1 1.5s-1.1-.5-1.1-1.9v-.5c.3-.3.7-.5 1.1-.5.7 0 1.1.7 1 1.4zm.1-3.8c-1.6.3-2.8 1.7-2.8 3.3 0 1.3.7 2.2 1.7 2.2.9 0 1.6-.7 1.6-1.6v-.1c0-.8-.6-1.5-1.5-1.6-.4 0-.9.2-1.2.5.3-1.3 1.1-2.3 2.2-2.7z"/></svg>